<?xml version="1.0" encoding="UTF-8" standalone="no"?>
<!-- Created with Inkscape (http://www.inkscape.org/) -->

<svg
   xmlns:dc="http://purl.org/dc/elements/1.1/"
   xmlns:cc="http://creativecommons.org/ns#"
   xmlns:rdf="http://www.w3.org/1999/02/22-rdf-syntax-ns#"
   xmlns:svg="http://www.w3.org/2000/svg"
   xmlns="http://www.w3.org/2000/svg"
   xmlns:sodipodi="http://sodipodi.sourceforge.net/DTD/sodipodi-0.dtd"
   xmlns:inkscape="http://www.inkscape.org/namespaces/inkscape"
   width="150mm"
   height="110mm"
   viewBox="0 0 531.49606 389.76378"
   id="svg4439"
   version="1.1"
   inkscape:version="0.92.3 (2405546, 2018-03-11)"
   sodipodi:docname="bike.svg">
  <defs
     id="defs4441" />
  <sodipodi:namedview
     id="base"
     pagecolor="#ffffff"
     bordercolor="#666666"
     borderopacity="1.0"
     inkscape:pageopacity="0.0"
     inkscape:pageshadow="2"
     inkscape:zoom="2.8"
     inkscape:cx="46.750454"
     inkscape:cy="180.37997"
     inkscape:document-units="px"
     inkscape:current-layer="layer1"
     showgrid="false"
     width="150mm"
     inkscape:window-width="3781"
     inkscape:window-height="2105"
     inkscape:window-x="59"
     inkscape:window-y="27"
     inkscape:window-maximized="1" />
  <metadata
     id="metadata4444">
    <rdf:RDF>
      <cc:Work
         rdf:about="">
        <dc:format>image/svg+xml</dc:format>
        <dc:type
           rdf:resource="http://purl.org/dc/dcmitype/StillImage" />
        <dc:title></dc:title>
      </cc:Work>
    </rdf:RDF>
  </metadata>
  <g
     inkscape:label="Layer 1"
     inkscape:groupmode="layer"
     id="layer1"
     transform="translate(0,-662.59843)">
    <path
       sodipodi:nodetypes="cccccccccczsczzzzz"
       inkscape:connector-curvature="0"
       id="path4588"
       d="m 426.29095,890.23647 c -6.19303,0.42196 -10.61049,0.95736 -16.70899,4.36523 l 15.8418,22.20507 c -2.51294,0.29143 -4.71547,1.70725 -6.05665,3.75587 l -15.58397,-21.83985 c -7.66163,6.64206 -11.53259,13.52788 -11.55873,25.78321 l 25.95506,-1.05664 c -0.44293,2.37909 0.38349,5.19924 1.64844,6.84765 l -26.6914,1.91796 c 4.35459,16.61882 18.0018,26.27367 33.1543,26.16212 18.8078,0 34.07031,-15.26127 34.07031,-34.07032 -1e-5,-18.80905 -15.26251,-34.0703 -34.07031,-34.0703 z m 0.0234,27.77557 c 3.5748,0 7.20705,2.37043 7.20705,7.12853 0,4.7581 -3.33458,7.13705 -7.20705,7.13705 -3.87248,0 -6.99362,-3.22031 -6.99362,-7.13705 0,-3.91673 3.41881,-7.12853 6.99362,-7.12853 z"
       style="color:#000000;font-style:normal;font-variant:normal;font-weight:normal;font-stretch:normal;font-size:medium;line-height:normal;font-family:sans-serif;text-indent:0;text-align:start;text-decoration:none;text-decoration-line:none;text-decoration-style:solid;text-decoration-color:#000000;letter-spacing:normal;word-spacing:normal;text-transform:none;writing-mode:lr-tb;direction:ltr;baseline-shift:baseline;text-anchor:start;white-space:normal;clip-rule:nonzero;display:inline;overflow:visible;visibility:visible;opacity:1;isolation:auto;mix-blend-mode:normal;color-interpolation:sRGB;color-interpolation-filters:linearRGB;solid-color:#000000;solid-opacity:1;fill:#000000;fill-opacity:1;fill-rule:nonzero;stroke:none;stroke-width:1.25;stroke-linecap:butt;stroke-linejoin:miter;stroke-miterlimit:4;stroke-dasharray:none;stroke-dashoffset:0;stroke-opacity:1;color-rendering:auto;image-rendering:auto;shape-rendering:auto;text-rendering:auto;enable-background:accumulate" />
    <path
       sodipodi:nodetypes="cssssc"
       inkscape:connector-curvature="0"
       id="path38"
       style="fill:none;stroke:#000000;stroke-width:1.25;stroke-linecap:butt;stroke-linejoin:miter;stroke-miterlimit:10;stroke-dasharray:none;stroke-opacity:1"
       d="m 141.93376,846.61177 c -9.4825,-4.4875 -19.93124,-7.33777 -31.02875,-8.11125 -47.76373,-3.32902 -89.184334,32.69255 -92.513749,80.45875 -3.329337,47.76505 32.6925,89.18503 80.4575,92.51503 47.764999,3.33 89.185749,-32.69373 92.514999,-80.45878 2.2495,-32.2737 -13.48125,-61.6325 -38.6475,-78.32" />
    <path
       sodipodi:nodetypes="cssssc"
       inkscape:connector-curvature="0"
       id="path42"
       style="fill:none;stroke:#000000;stroke-width:1.25;stroke-linecap:butt;stroke-linejoin:miter;stroke-miterlimit:10;stroke-dasharray:none;stroke-opacity:1"
       d="m 135.46839,860.47902 c -7.83,-3.71625 -16.45869,-6.07717 -25.62625,-6.71625 -39.336192,-2.74217 -73.446254,26.925 -76.188754,66.26 -2.7425,39.335 26.922456,73.44813 66.25875,76.19 39.336214,2.74188 73.446954,-26.92503 76.188754,-66.26 1.8232,-26.15628 -10.69,-49.9875 -30.84125,-63.8375" />
    <path
       inkscape:connector-curvature="0"
       id="path46"
       style="fill:none;stroke:#000000;stroke-width:1.25;stroke-linecap:butt;stroke-linejoin:miter;stroke-miterlimit:10;stroke-dasharray:none;stroke-opacity:1"
       d="m 103.34926,917.2649 c 0.66875,-0.13125 1.3625,-0.18875 2.07625,-0.13875 2.64375,0.18375 4.8875,1.655 6.17125,3.75625" />
    <path
       inkscape:connector-curvature="0"
       id="path50"
       style="fill:none;stroke:#000000;stroke-width:1.25;stroke-linecap:butt;stroke-linejoin:miter;stroke-miterlimit:10;stroke-dasharray:none;stroke-opacity:1"
       d="m 103.34926,917.2649 c -3.407499,0.67 -6.081249,3.54375 -6.333749,7.17375 -0.30375,4.34375 2.97125,8.11 7.313749,8.41125 4.3425,0.30375 8.10875,-2.9725 8.41,-7.315 0.11875,-1.6975 -0.315,-3.3025 -1.1425,-4.6525" />
    <path
       sodipodi:nodetypes="ccscc"
       inkscape:connector-curvature="0"
       id="path62"
       style="fill:none;stroke:#000000;stroke-width:1.25;stroke-linecap:butt;stroke-linejoin:miter;stroke-miterlimit:10;stroke-dasharray:none;stroke-opacity:1"
       d="m 299.13651,976.4519 c 0.21448,-0.26396 14.33388,-40.633 14.33388,-40.633 1.3575,-3.84875 -0.66494,-8.0702 -4.5125,-9.4275 -3.84868,-1.3577 -8.0675,0.66 -9.42625,4.50875 -4.87019,13.8062 -14.61438,41.41725 -14.61438,41.41725" />
    <path
       sodipodi:nodetypes="sssss"
       inkscape:connector-curvature="0"
       id="path66"
       style="fill:none;stroke:#000000;stroke-width:1.25;stroke-linecap:butt;stroke-linejoin:miter;stroke-miterlimit:10;stroke-dasharray:none;stroke-opacity:1"
       d="m 289.59551,981.3994 c 1.50893,0.41311 3.07043,-0.47739 3.485,-1.98875 0.41418,-1.50989 -0.47725,-3.0709 -1.98875,-3.485 -1.5135,-0.41465 -3.07025,0.47902 -3.48375,1.98875 -0.414,1.51152 0.47393,3.07061 1.9875,3.485 z" />
    <path
       sodipodi:nodetypes="ccccccccc"
       inkscape:connector-curvature="0"
       id="path82"
       style="fill:none;stroke:#000000;stroke-width:1.25;stroke-linecap:butt;stroke-linejoin:miter;stroke-miterlimit:10;stroke-dasharray:none;stroke-opacity:1"
       d="m 291.76601,973.4624 c 2.82625,0.77375 5.355,1.82625 7.37038,2.99006 3.30537,1.91256 5.21412,4.12632 4.72662,5.91257 -0.51625,1.88625 -3.59,2.81499 -7.75375,2.655 -2.17,-0.0813 -4.63125,-0.4575 -7.19,-1.15876 -2.695,-0.73749 -5.1125,-1.72875 -7.07725,-2.82756 -3.48225,-1.94881 -5.52225,-4.23756 -5.01975,-6.07256 0.53125,-1.93875 3.7575,-2.87125 8.095,-2.64375 2.085,0.10875 4.42375,0.48125 6.84875,1.145 z" />
    <path
       sodipodi:nodetypes="ccc"
       inkscape:connector-curvature="0"
       id="path98"
       style="fill:none;stroke:#000000;stroke-width:1.25;stroke-linecap:butt;stroke-linejoin:miter;stroke-miterlimit:10;stroke-dasharray:none;stroke-opacity:1"
       d="m 111.59651,920.88127 c 5.10125,-7.84125 20.52375,-31.8075 33.66375,-54.76625 6.84293,-12.62893 14.51515,-25.08438 19.19125,-38.58887" />
    <path
       sodipodi:nodetypes="cccc"
       inkscape:connector-curvature="0"
       id="path102"
       style="fill:none;stroke:#000000;stroke-width:1.25;stroke-linecap:butt;stroke-linejoin:miter;stroke-miterlimit:10;stroke-dasharray:none;stroke-opacity:1"
       d="m 153.01164,821.29727 c -6.26978,14.69677 -11.00927,25.47399 -17.54288,39.182 l -7.5e-4,-6.2e-4 c -9.55375,20.015 -21.54625,42.99 -32.11875,56.78625" />
    <path
       inkscape:connector-curvature="0"
       id="path110"
       style="fill:none;stroke:#000000;stroke-width:1.25;stroke-linecap:butt;stroke-linejoin:miter;stroke-miterlimit:10;stroke-dasharray:none;stroke-opacity:1"
       d="m 164.45151,827.52615 c 0.0125,-0.0338 0.025,-0.0713 0.0362,-0.10375 l -10.4325,-5.56875" />
    <path
       sodipodi:nodetypes="ccccc"
       inkscape:connector-curvature="0"
       id="path118"
       style="fill:none;stroke:#000000;stroke-width:1.25;stroke-linecap:butt;stroke-linejoin:miter;stroke-miterlimit:10;stroke-dasharray:none;stroke-opacity:1"
       d="m 232.84251,750.11327 c 0.19125,-2.75625 -1.885,-5.14375 -4.64,-5.335 -2.75375,-0.1925 -5.14375,1.885 -5.335,4.63875 -0.1925,2.75625 1.885,5.14375 4.63875,5.33625 2.755,0.1925 5.14375,-1.885 5.33625,-4.64 z" />
    <path
       sodipodi:nodetypes="sssss"
       inkscape:connector-curvature="0"
       id="path122"
       style="fill:none;stroke:#000000;stroke-width:1.25;stroke-linecap:butt;stroke-linejoin:miter;stroke-miterlimit:10;stroke-dasharray:none;stroke-opacity:1"
       d="m 209.04076,816.74365 c 0.37184,-5.33755 -3.65241,-9.9662 -8.99125,-10.3375 -5.33741,-0.3712 -9.96621,3.65375 -10.3375,8.99125 -0.37121,5.33625 3.6525,9.96629 8.99,10.3375 5.33875,0.37129 9.96684,-3.65255 10.33875,-8.99125 z" />
    <path
       inkscape:connector-curvature="0"
       id="path126"
       style="fill:none;stroke:#000000;stroke-width:1.25;stroke-linecap:butt;stroke-linejoin:miter;stroke-miterlimit:10;stroke-dasharray:none;stroke-opacity:1"
       d="m 359.53939,784.28702 -8.90375,22.20125" />
    <path
       inkscape:connector-curvature="0"
       id="path130"
       style="fill:none;stroke:#000000;stroke-width:1.25;stroke-linecap:butt;stroke-linejoin:miter;stroke-miterlimit:10;stroke-dasharray:none;stroke-opacity:1"
       d="m 358.02814,809.33402 9.38625,-24.1375" />
    <path
       inkscape:connector-curvature="0"
       id="path146"
       style="fill:none;stroke:#000000;stroke-width:1.25;stroke-linecap:butt;stroke-linejoin:miter;stroke-miterlimit:10;stroke-dasharray:none;stroke-opacity:1"
       d="m 201.07201,791.73515 -11.2325,-8.90625" />
    <path
       sodipodi:nodetypes="cccccc"
       inkscape:connector-curvature="0"
       id="path154"
       style="fill:none;stroke:#000000;stroke-width:1.25;stroke-linecap:butt;stroke-linejoin:miter;stroke-miterlimit:10;stroke-dasharray:none;stroke-opacity:1"
       d="m 153.91076,812.9009 16.27875,8.54125 -3.7975,7.14375 -16.25625,-8.87125 3.77494,-6.81381 c 6.89184,-12.81668 13.79347,-25.62809 20.68244,-38.44632" />
    <path
       sodipodi:nodetypes="ccccc"
       inkscape:connector-curvature="0"
       id="path158"
       style="fill:none;stroke:#000000;stroke-width:1.25;stroke-linecap:butt;stroke-linejoin:miter;stroke-miterlimit:10;stroke-dasharray:none;stroke-opacity:1"
       d="m 177.56189,768.35846 15.325,8.21744 -3.04763,6.25244 -15.24612,-8.37357 z" />
    <path
       sodipodi:nodetypes="ccccc"
       inkscape:connector-curvature="0"
       id="path182"
       style="fill:none;stroke:#000000;stroke-width:1.25;stroke-linecap:butt;stroke-linejoin:miter;stroke-miterlimit:10;stroke-dasharray:none;stroke-opacity:1"
       d="m 227.50626,754.75327 -30.74725,-5.27512 c 0,0 -3.50475,-0.66138 -3.37975,-5.45638 0.12625,-4.79375 5.15875,-5.07125 5.15875,-5.07125 l 29.66375,5.8275" />
    <path
       sodipodi:nodetypes="ccccccc"
       inkscape:connector-curvature="0"
       id="path198"
       style="fill:none;stroke:#000000;stroke-width:1.25;stroke-linecap:butt;stroke-linejoin:miter;stroke-miterlimit:10;stroke-dasharray:none;stroke-opacity:1"
       d="m 198.26176,738.98115 c -5.8645,0.55041 -11.72914,1.09944 -17.59375,1.64881 0,0 -0.85875,0.0814 -1.7725,0.61381 -1.0575,0.61875 -2.1875,1.84375 -2.15,4.28375 0.0225,1.41125 0.485,2.50375 1.29769,3.2635 0.75019,0.701 1.79769,1.1185 3.09394,1.2085 5.54596,0.023 10.1123,-0.22571 15.62212,-0.5215" />
    <path
       sodipodi:nodetypes="cc"
       inkscape:connector-curvature="0"
       id="path214"
       style="fill:none;stroke:#000000;stroke-width:1.25;stroke-linecap:butt;stroke-linejoin:miter;stroke-miterlimit:10;stroke-dasharray:none;stroke-opacity:1"
       d="m 192.91039,776.23465 c 4.16367,-11.92734 -1.50903,-15.79186 -5.54472,-26.1285" />
    <path
       inkscape:connector-curvature="0"
       id="path218"
       style="fill:none;stroke:#000000;stroke-width:1.25;stroke-linecap:butt;stroke-linejoin:miter;stroke-miterlimit:10;stroke-dasharray:none;stroke-opacity:1"
       d="m 174.32639,757.64702 3.235,10.71125" />
    <path
       sodipodi:nodetypes="ccccccc"
       inkscape:connector-curvature="0"
       id="path230"
       style="fill:none;stroke:#000000;stroke-width:1.25;stroke-linecap:butt;stroke-linejoin:miter;stroke-miterlimit:10;stroke-dasharray:none;stroke-opacity:1"
       d="m 174.32639,757.64702 -2.50507,-8.29581 -0.43256,-1.43206 c 0,0 -0.9625,-7.1675 3.87625,-7.665 1.65,-0.17125 2.795,-0.17875 3.59875,-0.11875 v 0 c 1.55125,0.1175 1.805,0.495 1.805,0.495" />
    <path
       inkscape:connector-curvature="0"
       id="path238"
       style="fill:none;stroke:#000000;stroke-width:1.25;stroke-linecap:butt;stroke-linejoin:miter;stroke-miterlimit:10;stroke-dasharray:none;stroke-opacity:1"
       d="m 171.82089,749.35102 v 0" />
    <path
       sodipodi:nodetypes="cccccc"
       inkscape:connector-curvature="0"
       id="path242"
       style="fill:none;stroke:#000000;stroke-width:1.25;stroke-linecap:butt;stroke-linejoin:miter;stroke-miterlimit:10;stroke-dasharray:none;stroke-opacity:1"
       d="m 174.99101,740.29402 -13.58875,-5.57 c 0,0 -0.54875,-0.1825 -1.31262,-0.21762 0,0 -2.46388,-0.37638 -3.58263,4.43988 -1.12,4.81624 1.63875,5.88125 2.14125,5.995 l 13.1725,4.41" />
    <path
       inkscape:connector-curvature="0"
       id="path246"
       style="fill:none;stroke:#000000;stroke-width:1.25;stroke-linecap:butt;stroke-linejoin:miter;stroke-miterlimit:10;stroke-dasharray:none;stroke-opacity:1"
       d="m 158.64826,744.94127 c 0,0 -0.0263,-0.005 -0.0662,-0.0138" />
    <path
       inkscape:connector-curvature="0"
       id="path250"
       style="fill:none;stroke:#000000;stroke-width:1.25;stroke-linecap:butt;stroke-linejoin:miter;stroke-miterlimit:10;stroke-dasharray:none;stroke-opacity:1"
       d="m 158.35964,744.88152 c 0.175,0.0437 0.28875,0.06 0.28875,0.06" />
    <path
       inkscape:connector-curvature="0"
       id="path254"
       style="fill:none;stroke:#000000;stroke-width:1.25;stroke-linecap:butt;stroke-linejoin:miter;stroke-miterlimit:10;stroke-dasharray:none;stroke-opacity:1"
       d="m 158.64826,744.94127 -0.0662,-0.0138" />
    <path
       inkscape:connector-curvature="0"
       id="path258"
       style="fill:none;stroke:#000000;stroke-width:1.25;stroke-linecap:butt;stroke-linejoin:miter;stroke-miterlimit:10;stroke-dasharray:none;stroke-opacity:1"
       d="m 146.21114,742.35402 c 0.0437,0.0137 0.0762,0.0225 0.0762,0.0225 l 0.27375,0.0575" />
    <path
       inkscape:connector-curvature="0"
       id="path262"
       style="fill:none;stroke:#000000;stroke-width:1.25;stroke-linecap:butt;stroke-linejoin:miter;stroke-miterlimit:10;stroke-dasharray:none;stroke-opacity:1"
       d="m 146.56151,742.4339 0.01,10e-4" />
    <path
       inkscape:connector-curvature="0"
       id="path266"
       style="fill:none;stroke:#000000;stroke-width:1.25;stroke-linecap:butt;stroke-linejoin:miter;stroke-miterlimit:10;stroke-dasharray:none;stroke-opacity:1"
       d="m 146.57251,742.4364 -0.0112,-0.003" />
    <path
       inkscape:connector-curvature="0"
       id="path270"
       style="fill:none;stroke:#000000;stroke-width:1.25;stroke-linecap:butt;stroke-linejoin:miter;stroke-miterlimit:10;stroke-dasharray:none;stroke-opacity:1"
       d="m 146.57251,742.4364 v 0" />
    <path
       inkscape:connector-curvature="0"
       id="path274"
       style="fill:none;stroke:#000000;stroke-width:1.25;stroke-linecap:butt;stroke-linejoin:miter;stroke-miterlimit:10;stroke-dasharray:none;stroke-opacity:1"
       d="m 146.21114,742.35402 0.35,0.08" />
    <path
       sodipodi:nodetypes="cccccccccccccccsssccccccc"
       inkscape:connector-curvature="0"
       id="path286"
       d="m 129.94916,727.32826 c -1.217,0.63516 -2.37364,1.87004 -2.91993,3.95899 -0.75971,2.90468 0.16803,5.03552 1.29493,6.33593 0.69341,0.84353 1.4484,1.54264 2.58208,1.89257 6.55112,1.27714 10.70717,2.23733 15.02343,3.24024 l -0.23632,4.61132 6.71484,1.79883 c 0.0718,0.63919 1.07448,9.36493 4.76758,19.66602 1.54735,4.31119 4.52418,9.99739 6.5332,13.48047 1.20364,2.03085 2.34344,3.62865 3.76953,5.28711 l 3.14844,-6.23828 c -3.81736,-4.75234 -5.52862,-8.8278 -7.40434,-13.1211 -2.46186,-5.8601 -4.31586,-13.66172 -4.875,-22.72461 0.0646,0.0145 0.17186,0.0372 0.17186,0.0372 l 0.26567,-1.2207 c 0,0 -0.80128,-0.25757 -1.30273,-0.98047 -0.50145,-0.72291 -0.89702,-1.97563 -0.36524,-4.26367 0.53597,-2.30608 1.37242,-3.22109 1.94727,-3.65039 0.29671,-0.22158 0.62201,-0.26544 0.93164,-0.31448 l 0.2793,-1.21289 -9.4043,-2.94921 -0.0293,-0.008 c 0,0 -0.70888,-0.10689 -1.54296,-0.0879 l -15.16993,-4.08203 c -1.43228,-0.25847 -3.06802,-0.0205 -4.17972,0.54505 z"
       style="color:#000000;font-style:normal;font-variant:normal;font-weight:normal;font-stretch:normal;font-size:medium;line-height:normal;font-family:sans-serif;text-indent:0;text-align:start;text-decoration:none;text-decoration-line:none;text-decoration-style:solid;text-decoration-color:#000000;letter-spacing:normal;word-spacing:normal;text-transform:none;writing-mode:lr-tb;direction:ltr;baseline-shift:baseline;text-anchor:start;white-space:normal;clip-rule:nonzero;display:inline;overflow:visible;visibility:visible;opacity:1;isolation:auto;mix-blend-mode:normal;color-interpolation:sRGB;color-interpolation-filters:linearRGB;solid-color:#000000;solid-opacity:1;fill:#000000;fill-opacity:1;fill-rule:nonzero;stroke:none;stroke-width:1;stroke-linecap:butt;stroke-linejoin:miter;stroke-miterlimit:10;stroke-dasharray:none;stroke-dashoffset:0;stroke-opacity:1;color-rendering:auto;image-rendering:auto;shape-rendering:auto;text-rendering:auto;enable-background:accumulate" />
    <path
       sodipodi:nodetypes="cssssscc"
       inkscape:connector-curvature="0"
       id="path314"
       style="fill:none;stroke:#000000;stroke-width:1.25;stroke-linecap:butt;stroke-linejoin:miter;stroke-miterlimit:10;stroke-dasharray:none;stroke-opacity:1"
       d="m 383.01776,787.14477 c 0,0 8.24659,0.94402 15.26875,-5.515 7.02159,-6.45848 3.91463,-13.70695 1.0375,-14.31375 -2.87787,-0.60695 -7.60959,-0.0305 -11.38,0.4075 -10.41075,1.20924 -23.72624,3.11729 -34.5775,2.265 -21.39249,-1.68021 -32.30019,-1.1693 -32.64625,4.565 -0.1165,1.93109 -0.72375,4.48625 5.29875,5.41875 z" />
    <path
       sodipodi:nodetypes="csssssc"
       inkscape:connector-curvature="0"
       id="path330"
       style="fill:none;stroke:#000000;stroke-width:1.25;stroke-linecap:butt;stroke-linejoin:miter;stroke-miterlimit:10;stroke-dasharray:none;stroke-opacity:1"
       d="m 304.54864,961.10902 c 4.2686,0.2802 8.74492,-0.41856 12.51281,-2.02775 10.15004,-4.33486 15.80766,-11.89735 17.04606,-22.31593 0.60745,-5.11048 0.21636,-10.21692 -2.063,-14.40519 -5.36756,-9.86278 -12.36516,-15.47805 -22.44177,-16.64204 -11.31165,-1.30664 -22.68529,4.41808 -27.76635,14.78154 -6.02847,12.29581 -2.81878,27.564 8.77225,35.69137" />
    <path
       inkscape:connector-curvature="0"
       id="path374"
       style="fill:none;stroke:#000000;stroke-width:1.25;stroke-linecap:butt;stroke-linejoin:miter;stroke-miterlimit:10;stroke-dasharray:none;stroke-opacity:1"
       d="m 344.01689,952.6634 -30.72375,7.6725" />
    <path
       inkscape:connector-curvature="0"
       id="path378"
       style="fill:none;stroke:#000000;stroke-width:1.25;stroke-linecap:round;stroke-linejoin:round;stroke-miterlimit:4;stroke-dasharray:none;stroke-opacity:1"
       d="m 427.15539,932.86915 v 0" />
    <path
       sodipodi:nodetypes="cc"
       inkscape:connector-curvature="0"
       id="path382"
       style="fill:none;stroke:#000000;stroke-width:1.25;stroke-linecap:butt;stroke-linejoin:miter;stroke-miterlimit:10;stroke-dasharray:none;stroke-opacity:1"
       d="m 397.07277,940.57906 -38.14863,8.53509" />
    <path
       inkscape:connector-curvature="0"
       id="path386"
       style="fill:none;stroke:#000000;stroke-width:1.25;stroke-linecap:butt;stroke-linejoin:miter;stroke-miterlimit:10;stroke-dasharray:none;stroke-opacity:1"
       d="m 308.58239,961.10027 -0.0175,0.004" />
    <path
       sodipodi:nodetypes="ccccc"
       inkscape:connector-curvature="0"
       id="path398"
       style="fill:none;stroke:#000000;stroke-width:1.25;stroke-linecap:butt;stroke-linejoin:miter;stroke-miterlimit:10;stroke-dasharray:none;stroke-opacity:1"
       d="m 356.09464,820.29527 3.80362,-10.24125 -11.06925,-4.26006 -29.56787,79.71919 2.11625,10.39125" />
    <path
       inkscape:connector-curvature="0"
       id="path402"
       style="fill:none;stroke:#000000;stroke-width:1.25;stroke-linecap:butt;stroke-linejoin:miter;stroke-miterlimit:10;stroke-dasharray:none;stroke-opacity:1"
       d="m 352.95001,828.76027 -25.2875,68.08875" />
    <path
       sodipodi:nodetypes="ccsccc"
       inkscape:connector-curvature="0"
       id="path406"
       style="fill:none;stroke:#000000;stroke-width:1.25;stroke-linecap:butt;stroke-linejoin:miter;stroke-miterlimit:10;stroke-dasharray:none;stroke-opacity:1"
       d="M 319.26114,885.51315 204.28739,794.2769 c -8.51625,-6.65125 -17.78305,-2.95028 -19.6525,0.3 l -12.3575,21.485 c -2.3825,4.21875 -1.38375,7.32875 1.3975,9.9125 0,0 92.86375,81.1775 108.16125,94.525" />
    <path
       sodipodi:nodetypes="cc"
       inkscape:connector-curvature="0"
       id="path414"
       style="fill:none;stroke:#000000;stroke-width:1.25;stroke-linecap:butt;stroke-linejoin:miter;stroke-miterlimit:10;stroke-dasharray:none;stroke-opacity:1"
       d="m 356.30814,910.4704 37.96332,4.15526" />
    <path
       sodipodi:nodetypes="cc"
       inkscape:connector-curvature="0"
       id="path422"
       style="fill:none;stroke:#000000;stroke-width:1.25;stroke-linecap:butt;stroke-linejoin:miter;stroke-miterlimit:10;stroke-dasharray:none;stroke-opacity:1"
       d="m 309.63594,905.72184 31.4422,3.17731" />
    <path
       sodipodi:nodetypes="csssc"
       inkscape:connector-curvature="0"
       id="path430"
       style="fill:none;stroke:#000000;stroke-width:1.25;stroke-linecap:butt;stroke-linejoin:miter;stroke-miterlimit:10;stroke-dasharray:none;stroke-opacity:1"
       d="m 355.58426,935.74327 c 8.4256,45.66197 44.63318,60.74551 70.81113,60.99601 39.53943,0.37834 71.59625,-32.055 71.59625,-71.5975 0,-39.54126 -32.055,-71.59626 -71.59625,-71.59626 -13.875,0 -26.82,3.95875 -37.78875,10.79" />
    <path
       sodipodi:nodetypes="ccc"
       inkscape:connector-curvature="0"
       id="path434"
       style="fill:none;stroke:#000000;stroke-width:1.25;stroke-linecap:butt;stroke-linejoin:miter;stroke-miterlimit:10;stroke-dasharray:none;stroke-opacity:1"
       d="m 354.81039,925.61265 c -10e-4,-0.1575 -0.0125,-0.3125 -0.0125,-0.47 0.76778,-27.37669 11.88498,-41.9312 26.9815,-55.97588" />
    <path
       sodipodi:nodetypes="cc"
       inkscape:connector-curvature="0"
       id="path450"
       style="fill:none;stroke:#000000;stroke-width:1.25;stroke-linecap:butt;stroke-linejoin:miter;stroke-miterlimit:10;stroke-dasharray:none;stroke-opacity:1"
       d="m 339.56751,926.23377 c 1.57488,-35.68568 16.02311,-55.13902 33.3425,-69.49875" />
    <path
       sodipodi:nodetypes="csssc"
       inkscape:connector-curvature="0"
       id="path454"
       style="fill:none;stroke:#000000;stroke-width:1.25;stroke-linecap:butt;stroke-linejoin:miter;stroke-miterlimit:10;stroke-dasharray:none;stroke-opacity:1"
       d="m 340.34501,936.83702 c 8.07691,49.41439 44.11264,75.02998 86.04938,75.16008 47.96852,0.1489 86.85625,-38.8862 86.85625,-86.85495 0,-47.96875 -38.8875,-86.855 -86.85625,-86.855 -17.17875,0 -33.18,5.0075 -46.66,13.61375" />
    <path
       sodipodi:nodetypes="ccccc"
       inkscape:connector-curvature="0"
       id="path466"
       style="fill:none;stroke:#000000;stroke-width:1.25;stroke-linecap:butt;stroke-linejoin:miter;stroke-miterlimit:10;stroke-dasharray:none;stroke-opacity:1"
       d="m 410.50389,894.8179 -52.20675,-72.96388 c -1.67577,-1.62483 -4.03184,-2.21286 -5.83338,-0.97624 -1.88125,1.34249 -2.31625,3.95375 -0.975,5.83375 l 52.19763,72.94887" />
    <path
       sodipodi:nodetypes="cc"
       inkscape:connector-curvature="0"
       id="path498"
       style="fill:none;stroke:#000000;stroke-width:1.25;stroke-linecap:butt;stroke-linejoin:miter;stroke-miterlimit:10;stroke-dasharray:none;stroke-opacity:1"
       d="m 393.93139,932.7829 -59.89763,4.50662" />
    <path
       sodipodi:nodetypes="cc"
       inkscape:connector-curvature="0"
       id="path506"
       style="fill:none;stroke:#000000;stroke-width:1.25;stroke-linecap:butt;stroke-linejoin:miter;stroke-miterlimit:10;stroke-dasharray:none;stroke-opacity:1"
       d="m 333.45376,926.48215 c 20.41754,-0.7943 41.79906,-1.81226 59.40263,-2.62675" />
    <path
       inkscape:connector-curvature="0"
       id="path518"
       style="fill:none;stroke:#000000;stroke-width:1.25;stroke-linecap:butt;stroke-linejoin:miter;stroke-miterlimit:10;stroke-dasharray:none;stroke-opacity:1"
       d="m 329.72001,901.24127 c 0,-3.2475 -2.63125,-5.87875 -5.87875,-5.87875 -3.2475,0 -5.87875,2.63125 -5.87875,5.87875 0,3.2475 2.63125,5.87875 5.87875,5.87875 3.2475,0 5.87875,-2.63125 5.87875,-5.87875 z" />
    <path
       inkscape:connector-curvature="0"
       id="path522"
       style="fill:none;stroke:#000000;stroke-width:1.25;stroke-linecap:butt;stroke-linejoin:miter;stroke-miterlimit:10;stroke-dasharray:none;stroke-opacity:1"
       d="m 323.84114,907.12027 -1.54625,3.81625" />
  </g>
</svg>
